<?xml version="1.0" encoding="utf-8"?><svg xmlns="http://www.w3.org/2000/svg" xmlns:xlink="http://www.w3.org/1999/xlink"><symbol fill="none" viewBox="0 0 25 24" id="app-outlined" xmlns="http://www.w3.org/2000/svg"><path fill-rule="evenodd" clip-rule="evenodd" d="M14.088 3.252c-.651-.332-1.533-.337-2.19-.006C9.605 4.737 7.18 6.159 5.102 7.585c-.309.25-.528.612-.525 1.04.004.424.228.782.535 1.028 2.068 1.245 4.493 2.667 6.736 4.3.65.332 1.533.337 2.19.006 2.357-1.639 3.327-2.113 6.795-4.34.31-.249.529-.612.525-1.039-.004-.425-.227-.783-.535-1.028-2.003-1.393-4.428-2.815-6.735-4.3Zm-1.522 1.257c.233-.117.614-.116.849.003 2.01 1.173 3.95 2.595 6.409 4.078-1.974 1.36-3.914 2.783-6.455 4.105a1.058 1.058 0 0 1-.848-.003c-2.319-1.32-4.371-2.741-6.41-4.078C8.15 7.107 9.606 6.16 12.567 4.51Z" fill="currentColor"/><path d="M21.89 12.103a.701.701 0 0 1-.232.98l-5.925 3.614c-.793.363-1.769.837-2.733.837-.964 0-1.94-.474-2.798-.837l-5.86-3.573a.701.701 0 0 1-.232-.98.738.738 0 0 1 1.003-.227l5.86 3.574c.527.322 1.277.621 2.027.62.75 0 1.435-.299 1.963-.62l5.924-3.615a.738.738 0 0 1 1.003.227Z" fill="currentColor"/><path d="M21.89 15.662a.701.701 0 0 1-.232.98l-5.13 3.13c-1.588.759-2.31 1.228-3.56 1.228s-2.878-.943-3.56-1.227l-5.066-3.09a.701.701 0 0 1-.232-.98.738.738 0 0 1 1.003-.226l5.065 3.09c.75.457 1.753.863 2.79.863 1.036 0 2.039-.406 2.788-.864l5.131-3.13a.738.738 0 0 1 1.003.226Z" fill="currentColor"/></symbol><symbol fill="none" viewBox="0 0 25 24" id="app-outlined" xmlns="http://www.w3.org/2000/svg"><path fill-rule="evenodd" clip-rule="evenodd" d="M14.088 3.252c-.651-.332-1.533-.337-2.19-.006C9.605 4.737 7.18 6.159 5.102 7.585c-.309.25-.528.612-.525 1.04.004.424.228.782.535 1.028 2.068 1.245 4.493 2.667 6.736 4.3.65.332 1.533.337 2.19.006 2.357-1.639 3.327-2.113 6.795-4.34.31-.249.529-.612.525-1.039-.004-.425-.227-.783-.535-1.028-2.003-1.393-4.428-2.815-6.735-4.3Zm-1.522 1.257c.233-.117.614-.116.849.003 2.01 1.173 3.95 2.595 6.409 4.078-1.974 1.36-3.914 2.783-6.455 4.105a1.058 1.058 0 0 1-.848-.003c-2.319-1.32-4.371-2.741-6.41-4.078C8.15 7.107 9.606 6.16 12.567 4.51Z" fill="currentColor"/><path d="M21.89 12.103a.701.701 0 0 1-.232.98l-5.925 3.614c-.793.363-1.769.837-2.733.837-.964 0-1.94-.474-2.798-.837l-5.86-3.573a.701.701 0 0 1-.232-.98.738.738 0 0 1 1.003-.227l5.86 3.574c.527.322 1.277.621 2.027.62.75 0 1.435-.299 1.963-.62l5.924-3.615a.738.738 0 0 1 1.003.227Z" fill="currentColor"/><path d="M21.89 15.662a.701.701 0 0 1-.232.98l-5.13 3.13c-1.588.759-2.31 1.228-3.56 1.228s-2.878-.943-3.56-1.227l-5.066-3.09a.701.701 0 0 1-.232-.98.738.738 0 0 1 1.003-.226l5.065 3.09c.75.457 1.753.863 2.79.863 1.036 0 2.039-.406 2.788-.864l5.131-3.13a.738.738 0 0 1 1.003.226Z" fill="currentColor"/></symbol><symbol fill="none" viewBox="0 0 24 24" id="arrow-left" xmlns="http://www.w3.org/2000/svg"><path d="M14.53 7.53a.75.75 0 0 0-1.06-1.06l1.06 1.06ZM9 12l-.53-.53a.75.75 0 0 0 0 1.06L9 12Zm4.47 5.53a.75.75 0 1 0 1.06-1.06l-1.06 1.06Zm0-11.06-5 5 1.06 1.06 5-5-1.06-1.06Zm-5 6.06 5 5 1.06-1.06-5-5-1.06 1.06Z" fill="currentColor"/></symbol><symbol fill="none" viewBox="0 0 24 24" id="arrow-left" xmlns="http://www.w3.org/2000/svg"><path d="M14.53 7.53a.75.75 0 0 0-1.06-1.06l1.06 1.06ZM9 12l-.53-.53a.75.75 0 0 0 0 1.06L9 12Zm4.47 5.53a.75.75 0 1 0 1.06-1.06l-1.06 1.06Zm0-11.06-5 5 1.06 1.06 5-5-1.06-1.06Zm-5 6.06 5 5 1.06-1.06-5-5-1.06 1.06Z" fill="currentColor"/></symbol><symbol fill="none" viewBox="0 0 24 24" id="arrow-right" xmlns="http://www.w3.org/2000/svg"><path d="M9.47 16.47a.75.75 0 1 0 1.06 1.06l-1.06-1.06ZM15 12l.53.53a.75.75 0 0 0 0-1.06L15 12Zm-4.47-5.53a.75.75 0 1 0-1.06 1.06l1.06-1.06Zm0 11.06 5-5-1.06-1.06-5 5 1.06 1.06Zm5-6.06-5-5-1.06 1.06 5 5 1.06-1.06Z" fill="currentColor"/></symbol><symbol fill="none" viewBox="0 0 24 24" id="arrow-right" xmlns="http://www.w3.org/2000/svg"><path d="M9.47 16.47a.75.75 0 1 0 1.06 1.06l-1.06-1.06ZM15 12l.53.53a.75.75 0 0 0 0-1.06L15 12Zm-4.47-5.53a.75.75 0 1 0-1.06 1.06l1.06-1.06Zm0 11.06 5-5-1.06-1.06-5 5 1.06 1.06Zm5-6.06-5-5-1.06 1.06 5 5 1.06-1.06Z" fill="currentColor"/></symbol><symbol fill="none" viewBox="0 0 25 24" id="crown-outlined" xmlns="http://www.w3.org/2000/svg"><path d="m4.5 5 .53-.53A.75.75 0 0 0 3.75 5h.75Zm0 11h-.75c0 .414.336.75.75.75V16Zm16 0v.75a.75.75 0 0 0 .75-.75h-.75Zm0-11h.75a.75.75 0 0 0-1.28-.53l.53.53Zm-4 4-.53.53a.75.75 0 0 0 1.06 0L16.5 9Zm-8 0-.53.53a.75.75 0 0 0 1.06 0L8.5 9Zm4-4 .53-.53a.75.75 0 0 0-1.06 0l.53.53Zm-8 13.25a.75.75 0 0 0 0 1.5v-1.5Zm16 1.5a.75.75 0 0 0 0-1.5v1.5ZM3.75 5v11h1.5V5h-1.5Zm.75 11.75h16v-1.5h-16v1.5ZM21.25 16V5h-1.5v11h1.5ZM19.97 4.47l-4 4 1.06 1.06 4-4-1.06-1.06Zm-16 1.06 4 4 1.06-1.06-4-4-1.06 1.06Zm5.06 4 4-4-1.06-1.06-4 4 1.06 1.06Zm2.94-4 4 4 1.06-1.06-4-4-1.06 1.06ZM4.5 19.75h16v-1.5h-16v1.5Z" fill="currentColor"/></symbol><symbol fill="none" viewBox="0 0 25 24" id="crown-outlined" xmlns="http://www.w3.org/2000/svg"><path d="m4.5 5 .53-.53A.75.75 0 0 0 3.75 5h.75Zm0 11h-.75c0 .414.336.75.75.75V16Zm16 0v.75a.75.75 0 0 0 .75-.75h-.75Zm0-11h.75a.75.75 0 0 0-1.28-.53l.53.53Zm-4 4-.53.53a.75.75 0 0 0 1.06 0L16.5 9Zm-8 0-.53.53a.75.75 0 0 0 1.06 0L8.5 9Zm4-4 .53-.53a.75.75 0 0 0-1.06 0l.53.53Zm-8 13.25a.75.75 0 0 0 0 1.5v-1.5Zm16 1.5a.75.75 0 0 0 0-1.5v1.5ZM3.75 5v11h1.5V5h-1.5Zm.75 11.75h16v-1.5h-16v1.5ZM21.25 16V5h-1.5v11h1.5ZM19.97 4.47l-4 4 1.06 1.06 4-4-1.06-1.06Zm-16 1.06 4 4 1.06-1.06-4-4-1.06 1.06Zm5.06 4 4-4-1.06-1.06-4 4 1.06 1.06Zm2.94-4 4 4 1.06-1.06-4-4-1.06 1.06ZM4.5 19.75h16v-1.5h-16v1.5Z" fill="currentColor"/></symbol><symbol fill="none" viewBox="0 0 24 24" id="github-outlined" xmlns="http://www.w3.org/2000/svg"><path d="M10.07 20.503a1 1 0 0 0-1.18-.983c-1.31.24-2.963.276-3.402-.959a5.708 5.708 0 0 0-1.837-2.415 1.194 1.194 0 0 1-.167-.109 1 1 0 0 0-.93-.645h-.005a1 1 0 0 0-1 .995c-.004.815.81 1.338 1.141 1.514.39.392.704.853.924 1.36.365 1.023 1.423 2.576 4.466 2.376l.003.098.004.268a1 1 0 1 0 2 0l-.005-.318c-.005-.19-.012-.464-.012-1.182ZM20.737 5.377a5.64 5.64 0 0 0 .09-.42 6.279 6.279 0 0 0-.408-3.293 1.003 1.003 0 0 0-.615-.58c-.356-.12-1.67-.357-4.184 1.25a13.87 13.87 0 0 0-6.354 0C6.762.751 5.455.966 5.102 1.079a.997.997 0 0 0-.631.584 6.3 6.3 0 0 0-.404 3.357c.025.127.051.246.079.354a6.27 6.27 0 0 0-1.256 3.83c-.003.307.012.615.043.921.334 4.602 3.334 5.984 5.424 6.459a4.592 4.592 0 0 0-.118.4 1 1 0 0 0 1.942.479c.064-.333.227-.64.468-.878a1 1 0 0 0-.546-1.745c-3.454-.395-4.954-1.802-5.18-4.899a6.612 6.612 0 0 1-.033-.738A4.258 4.258 0 0 1 6.005 6.26a1 1 0 0 0 .188-1.025 3.388 3.388 0 0 1-.155-.555 4.094 4.094 0 0 1 .079-1.616c.869.246 1.687.646 2.415 1.18a1.009 1.009 0 0 0 .827.133 11.777 11.777 0 0 1 6.173.001 1.006 1.006 0 0 0 .83-.138 7.571 7.571 0 0 1 2.406-1.19c.133.515.162 1.051.087 1.578a3.207 3.207 0 0 1-.169.607 1 1 0 0 0 .189 1.025c.077.087.154.18.223.268.606.758.926 1.706.902 2.676.002.26-.01.52-.038.777-.22 3.056-1.725 4.464-5.195 4.86a1 1 0 0 0-.546 1.746c.249.245.412.563.466.908.068.268.1.544.093.82v2.334c-.01.647-.01 1.132-.01 1.355a1 1 0 1 0 2 0c0-.217 0-.692.01-1.34v-2.35a4.882 4.882 0 0 0-.155-1.311c-.032-.14-.07-.28-.116-.416a6.513 6.513 0 0 0 5.445-6.424A8.7 8.7 0 0 0 22 9.203a6.13 6.13 0 0 0-1.263-3.826Z" fill="currentColor"/></symbol><symbol fill="none" viewBox="0 0 24 24" id="github-outlined" xmlns="http://www.w3.org/2000/svg"><path d="M10.07 20.503a1 1 0 0 0-1.18-.983c-1.31.24-2.963.276-3.402-.959a5.708 5.708 0 0 0-1.837-2.415 1.194 1.194 0 0 1-.167-.109 1 1 0 0 0-.93-.645h-.005a1 1 0 0 0-1 .995c-.004.815.81 1.338 1.141 1.514.39.392.704.853.924 1.36.365 1.023 1.423 2.576 4.466 2.376l.003.098.004.268a1 1 0 1 0 2 0l-.005-.318c-.005-.19-.012-.464-.012-1.182ZM20.737 5.377a5.64 5.64 0 0 0 .09-.42 6.279 6.279 0 0 0-.408-3.293 1.003 1.003 0 0 0-.615-.58c-.356-.12-1.67-.357-4.184 1.25a13.87 13.87 0 0 0-6.354 0C6.762.751 5.455.966 5.102 1.079a.997.997 0 0 0-.631.584 6.3 6.3 0 0 0-.404 3.357c.025.127.051.246.079.354a6.27 6.27 0 0 0-1.256 3.83c-.003.307.012.615.043.921.334 4.602 3.334 5.984 5.424 6.459a4.592 4.592 0 0 0-.118.4 1 1 0 0 0 1.942.479c.064-.333.227-.64.468-.878a1 1 0 0 0-.546-1.745c-3.454-.395-4.954-1.802-5.18-4.899a6.612 6.612 0 0 1-.033-.738A4.258 4.258 0 0 1 6.005 6.26a1 1 0 0 0 .188-1.025 3.388 3.388 0 0 1-.155-.555 4.094 4.094 0 0 1 .079-1.616c.869.246 1.687.646 2.415 1.18a1.009 1.009 0 0 0 .827.133 11.777 11.777 0 0 1 6.173.001 1.006 1.006 0 0 0 .83-.138 7.571 7.571 0 0 1 2.406-1.19c.133.515.162 1.051.087 1.578a3.207 3.207 0 0 1-.169.607 1 1 0 0 0 .189 1.025c.077.087.154.18.223.268.606.758.926 1.706.902 2.676.002.26-.01.52-.038.777-.22 3.056-1.725 4.464-5.195 4.86a1 1 0 0 0-.546 1.746c.249.245.412.563.466.908.068.268.1.544.093.82v2.334c-.01.647-.01 1.132-.01 1.355a1 1 0 1 0 2 0c0-.217 0-.692.01-1.34v-2.35a4.882 4.882 0 0 0-.155-1.311c-.032-.14-.07-.28-.116-.416a6.513 6.513 0 0 0 5.445-6.424A8.7 8.7 0 0 0 22 9.203a6.13 6.13 0 0 0-1.263-3.826Z" fill="currentColor"/></symbol><symbol fill="none" viewBox="0 0 25 24" id="globe-outlined" xmlns="http://www.w3.org/2000/svg"><path d="M20.75 12a8.25 8.25 0 0 1-8.25 8.25v1.5c5.385 0 9.75-4.365 9.75-9.75h-1.5Zm-8.25 8.25A8.25 8.25 0 0 1 4.25 12h-1.5c0 5.385 4.365 9.75 9.75 9.75v-1.5ZM4.25 12a8.25 8.25 0 0 1 8.25-8.25v-1.5c-5.385 0-9.75 4.365-9.75 9.75h1.5Zm8.25-8.25A8.25 8.25 0 0 1 20.75 12h1.5c0-5.385-4.365-9.75-9.75-9.75v1.5Zm0-.75a90.324 90.324 0 0 1-.452.599 1.19 1.19 0 0 1 .028.022 7.424 7.424 0 0 1 .518.472c.347.346.814.87 1.282 1.573.935 1.402 1.874 3.51 1.874 6.334h1.5c0-3.176-1.06-5.568-2.126-7.166a11.876 11.876 0 0 0-1.469-1.802 8.861 8.861 0 0 0-.642-.583 3.016 3.016 0 0 0-.056-.043l-.004-.004-.002-.001S12.95 2.4 12.5 3Zm3.25 9c0 2.824-.94 4.932-1.874 6.334a10.387 10.387 0 0 1-1.281 1.573 7.422 7.422 0 0 1-.546.494s.001-.001.451.599l.45.6.001-.001.002-.001.004-.004a.934.934 0 0 0 .056-.044 8.858 8.858 0 0 0 .642-.583 11.87 11.87 0 0 0 1.469-1.801c1.065-1.598 2.126-3.99 2.126-7.166h-1.5Zm-3.25 9 .45-.6.002.001a.582.582 0 0 1-.028-.022 7.422 7.422 0 0 1-.518-.472c-.347-.346-.814-.87-1.282-1.573-.935-1.402-1.874-3.51-1.874-6.334h-1.5c0 3.176 1.06 5.568 2.126 7.166a11.872 11.872 0 0 0 1.469 1.802 8.858 8.858 0 0 0 .684.616l.014.01.004.004.002.001s.001.001.451-.599Zm-3.25-9c0-2.824.94-4.932 1.874-6.334a10.38 10.38 0 0 1 1.281-1.573 7.424 7.424 0 0 1 .546-.493L12.5 3l-.45-.6-.001.001-.002.001-.004.004a.97.97 0 0 0-.056.043 8.861 8.861 0 0 0-.642.583 11.879 11.879 0 0 0-1.469 1.802C8.811 6.432 7.75 8.824 7.75 12h1.5Zm12.25-.75h-18v1.5h18v-1.5Z" fill="currentColor"/></symbol><symbol fill="none" viewBox="0 0 25 24" id="globe-outlined" xmlns="http://www.w3.org/2000/svg"><path d="M20.75 12a8.25 8.25 0 0 1-8.25 8.25v1.5c5.385 0 9.75-4.365 9.75-9.75h-1.5Zm-8.25 8.25A8.25 8.25 0 0 1 4.25 12h-1.5c0 5.385 4.365 9.75 9.75 9.75v-1.5ZM4.25 12a8.25 8.25 0 0 1 8.25-8.25v-1.5c-5.385 0-9.75 4.365-9.75 9.75h1.5Zm8.25-8.25A8.25 8.25 0 0 1 20.75 12h1.5c0-5.385-4.365-9.75-9.75-9.75v1.5Zm0-.75a90.324 90.324 0 0 1-.452.599 1.19 1.19 0 0 1 .028.022 7.424 7.424 0 0 1 .518.472c.347.346.814.87 1.282 1.573.935 1.402 1.874 3.51 1.874 6.334h1.5c0-3.176-1.06-5.568-2.126-7.166a11.876 11.876 0 0 0-1.469-1.802 8.861 8.861 0 0 0-.642-.583 3.016 3.016 0 0 0-.056-.043l-.004-.004-.002-.001S12.95 2.4 12.5 3Zm3.25 9c0 2.824-.94 4.932-1.874 6.334a10.387 10.387 0 0 1-1.281 1.573 7.422 7.422 0 0 1-.546.494s.001-.001.451.599l.45.6.001-.001.002-.001.004-.004a.934.934 0 0 0 .056-.044 8.858 8.858 0 0 0 .642-.583 11.87 11.87 0 0 0 1.469-1.801c1.065-1.598 2.126-3.99 2.126-7.166h-1.5Zm-3.25 9 .45-.6.002.001a.582.582 0 0 1-.028-.022 7.422 7.422 0 0 1-.518-.472c-.347-.346-.814-.87-1.282-1.573-.935-1.402-1.874-3.51-1.874-6.334h-1.5c0 3.176 1.06 5.568 2.126 7.166a11.872 11.872 0 0 0 1.469 1.802 8.858 8.858 0 0 0 .684.616l.014.01.004.004.002.001s.001.001.451-.599Zm-3.25-9c0-2.824.94-4.932 1.874-6.334a10.38 10.38 0 0 1 1.281-1.573 7.424 7.424 0 0 1 .546-.493L12.5 3l-.45-.6-.001.001-.002.001-.004.004a.97.97 0 0 0-.056.043 8.861 8.861 0 0 0-.642.583 11.879 11.879 0 0 0-1.469 1.802C8.811 6.432 7.75 8.824 7.75 12h1.5Zm12.25-.75h-18v1.5h18v-1.5Z" fill="currentColor"/></symbol><symbol fill="none" viewBox="0 0 24 24" id="instagram-outlined" xmlns="http://www.w3.org/2000/svg"><path d="M12 7a5 5 0 1 0 0 10 5 5 0 0 0 0-10Zm0 8a3 3 0 1 1 0-5.999A3 3 0 0 1 12 15Zm5-9a1 1 0 1 0 0 2 1 1 0 0 0 0-2Zm4.94 2.24a7.51 7.51 0 0 0-.48-2.5 5.56 5.56 0 0 0-3.2-3.2 7.51 7.51 0 0 0-2.5-.48C14.79 2 14.47 2 12 2c-2.47 0-2.79 0-3.76.06a7.51 7.51 0 0 0-2.5.48 5.56 5.56 0 0 0-3.2 3.2 7.51 7.51 0 0 0-.48 2.5C2 9.22 2 9.54 2 12s0 2.78.06 3.76c.017.855.179 1.7.48 2.5a5.56 5.56 0 0 0 3.2 3.2 7.51 7.51 0 0 0 2.5.48c1 0 1.29.06 3.76.06 2.47 0 2.79 0 3.76-.06a7.51 7.51 0 0 0 2.5-.48 5.56 5.56 0 0 0 3.2-3.2 7.51 7.51 0 0 0 .48-2.5c0-1 .06-1.3.06-3.76s0-2.78-.06-3.76Zm-2 7.43a6 6 0 0 1-.35 1.86 3.4 3.4 0 0 1-.82 1.25 3.26 3.26 0 0 1-1.25.81 5.75 5.75 0 0 1-1.87.36c-.94 0-1.23.05-3.66.05H8.34a6 6 0 0 1-1.87-.35 3.4 3.4 0 0 1-1.25-.82 3.26 3.26 0 0 1-.81-1.25 5.74 5.74 0 0 1-.36-1.86V8.38a5.86 5.86 0 0 1 .36-1.87 3.3 3.3 0 0 1 .81-1.24 3.26 3.26 0 0 1 1.25-.81 5.75 5.75 0 0 1 1.87-.36C9.28 4 9.57 4 12 4h3.66a5.87 5.87 0 0 1 1.88.36 3.3 3.3 0 0 1 1.24.81c.363.349.64.776.81 1.25A5.74 5.74 0 0 1 20 8.33c0 1 .05 1.25.05 3.67S20 14.71 20 15.67h-.06Z" fill="currentColor"/></symbol><symbol fill="none" viewBox="0 0 24 24" id="instagram-outlined" xmlns="http://www.w3.org/2000/svg"><path d="M12 7a5 5 0 1 0 0 10 5 5 0 0 0 0-10Zm0 8a3 3 0 1 1 0-5.999A3 3 0 0 1 12 15Zm5-9a1 1 0 1 0 0 2 1 1 0 0 0 0-2Zm4.94 2.24a7.51 7.51 0 0 0-.48-2.5 5.56 5.56 0 0 0-3.2-3.2 7.51 7.51 0 0 0-2.5-.48C14.79 2 14.47 2 12 2c-2.47 0-2.79 0-3.76.06a7.51 7.51 0 0 0-2.5.48 5.56 5.56 0 0 0-3.2 3.2 7.51 7.51 0 0 0-.48 2.5C2 9.22 2 9.54 2 12s0 2.78.06 3.76c.017.855.179 1.7.48 2.5a5.56 5.56 0 0 0 3.2 3.2 7.51 7.51 0 0 0 2.5.48c1 0 1.29.06 3.76.06 2.47 0 2.79 0 3.76-.06a7.51 7.51 0 0 0 2.5-.48 5.56 5.56 0 0 0 3.2-3.2 7.51 7.51 0 0 0 .48-2.5c0-1 .06-1.3.06-3.76s0-2.78-.06-3.76Zm-2 7.43a6 6 0 0 1-.35 1.86 3.4 3.4 0 0 1-.82 1.25 3.26 3.26 0 0 1-1.25.81 5.75 5.75 0 0 1-1.87.36c-.94 0-1.23.05-3.66.05H8.34a6 6 0 0 1-1.87-.35 3.4 3.4 0 0 1-1.25-.82 3.26 3.26 0 0 1-.81-1.25 5.74 5.74 0 0 1-.36-1.86V8.38a5.86 5.86 0 0 1 .36-1.87 3.3 3.3 0 0 1 .81-1.24 3.26 3.26 0 0 1 1.25-.81 5.75 5.75 0 0 1 1.87-.36C9.28 4 9.57 4 12 4h3.66a5.87 5.87 0 0 1 1.88.36 3.3 3.3 0 0 1 1.24.81c.363.349.64.776.81 1.25A5.74 5.74 0 0 1 20 8.33c0 1 .05 1.25.05 3.67S20 14.71 20 15.67h-.06Z" fill="currentColor"/></symbol><symbol fill="none" viewBox="0 0 24 24" id="link" xmlns="http://www.w3.org/2000/svg"><path d="M15 15.25a.75.75 0 0 0 0 1.5v-1.5Zm0-8a.75.75 0 0 0 0 1.5v-1.5Zm-7 4a.75.75 0 0 0 0 1.5v-1.5Zm8 1.5a.75.75 0 0 0 0-1.5v1.5Zm-7-4a.75.75 0 0 0 0-1.5v1.5Zm0 8a.75.75 0 0 0 0-1.5v1.5Zm8-8A3.25 3.25 0 0 1 20.25 12h1.5A4.75 4.75 0 0 0 17 7.25v1.5ZM20.25 12A3.25 3.25 0 0 1 17 15.25v1.5A4.75 4.75 0 0 0 21.75 12h-1.5ZM17 15.25h-2v1.5h2v-1.5Zm0-8h-2v1.5h2v-1.5Zm-9 5.5h8v-1.5H8v1.5Zm-1 2.5A3.25 3.25 0 0 1 3.75 12h-1.5A4.75 4.75 0 0 0 7 16.75v-1.5ZM3.75 12A3.25 3.25 0 0 1 7 8.75v-1.5A4.75 4.75 0 0 0 2.25 12h1.5ZM7 8.75h2v-1.5H7v1.5Zm0 8h2v-1.5H7v1.5Z" fill="currentColor"/></symbol><symbol fill="none" viewBox="0 0 24 24" id="link" xmlns="http://www.w3.org/2000/svg"><path d="M15 15.25a.75.75 0 0 0 0 1.5v-1.5Zm0-8a.75.75 0 0 0 0 1.5v-1.5Zm-7 4a.75.75 0 0 0 0 1.5v-1.5Zm8 1.5a.75.75 0 0 0 0-1.5v1.5Zm-7-4a.75.75 0 0 0 0-1.5v1.5Zm0 8a.75.75 0 0 0 0-1.5v1.5Zm8-8A3.25 3.25 0 0 1 20.25 12h1.5A4.75 4.75 0 0 0 17 7.25v1.5ZM20.25 12A3.25 3.25 0 0 1 17 15.25v1.5A4.75 4.75 0 0 0 21.75 12h-1.5ZM17 15.25h-2v1.5h2v-1.5Zm0-8h-2v1.5h2v-1.5Zm-9 5.5h8v-1.5H8v1.5Zm-1 2.5A3.25 3.25 0 0 1 3.75 12h-1.5A4.75 4.75 0 0 0 7 16.75v-1.5ZM3.75 12A3.25 3.25 0 0 1 7 8.75v-1.5A4.75 4.75 0 0 0 2.25 12h1.5ZM7 8.75h2v-1.5H7v1.5Zm0 8h2v-1.5H7v1.5Z" fill="currentColor"/></symbol><symbol fill="none" viewBox="0 0 24 24" id="linkedin-outlined" xmlns="http://www.w3.org/2000/svg"><path d="M17.5 8.999c-.895 0-1.777.221-2.566.644A.999.999 0 0 0 14 9h-4a1 1 0 0 0-1 1v12a1 1 0 0 0 1 1h4a.997.997 0 0 0 1-1v-5.5a1 1 0 1 1 2 0v5.5a1 1 0 0 0 1 1h4a.997.997 0 0 0 1-1v-7.5a5.507 5.507 0 0 0-5.5-5.5Zm3.5 12h-2v-4.5a3 3 0 0 0-6 0v4.5h-2v-10h2v.703a1 1 0 0 0 1.781.625A3.483 3.483 0 0 1 21 14.499v6.5Zm-14-12H3a1 1 0 0 0-1 1v12a1 1 0 0 0 1 1h4a.998.998 0 0 0 1-1v-12a1 1 0 0 0-1-1Zm-1 12H4v-10h2v10ZM5.015 1.542a3.233 3.233 0 1 0-.057 6.457h.028a3.234 3.234 0 1 0 .029-6.457Zm-.029 4.457h-.028a1.222 1.222 0 0 1-1.37-1.229c0-.746.56-1.228 1.427-1.228A1.234 1.234 0 0 1 6.41 4.77C6.411 5.517 5.851 6 4.986 6Z" fill="currentColor"/></symbol><symbol fill="none" viewBox="0 0 24 24" id="linkedin-outlined" xmlns="http://www.w3.org/2000/svg"><path d="M17.5 8.999c-.895 0-1.777.221-2.566.644A.999.999 0 0 0 14 9h-4a1 1 0 0 0-1 1v12a1 1 0 0 0 1 1h4a.997.997 0 0 0 1-1v-5.5a1 1 0 1 1 2 0v5.5a1 1 0 0 0 1 1h4a.997.997 0 0 0 1-1v-7.5a5.507 5.507 0 0 0-5.5-5.5Zm3.5 12h-2v-4.5a3 3 0 0 0-6 0v4.5h-2v-10h2v.703a1 1 0 0 0 1.781.625A3.483 3.483 0 0 1 21 14.499v6.5Zm-14-12H3a1 1 0 0 0-1 1v12a1 1 0 0 0 1 1h4a.998.998 0 0 0 1-1v-12a1 1 0 0 0-1-1Zm-1 12H4v-10h2v10ZM5.015 1.542a3.233 3.233 0 1 0-.057 6.457h.028a3.234 3.234 0 1 0 .029-6.457Zm-.029 4.457h-.028a1.222 1.222 0 0 1-1.37-1.229c0-.746.56-1.228 1.427-1.228A1.234 1.234 0 0 1 6.41 4.77C6.411 5.517 5.851 6 4.986 6Z" fill="currentColor"/></symbol><symbol fill="none" viewBox="0 0 24 24" id="mail-outlined" xmlns="http://www.w3.org/2000/svg"><path d="m10.586 12.586.53-.53-.53.53Zm2.828 0-.53-.53.53.53ZM4 5.75h16v-1.5H4v1.5ZM20.25 6v12h1.5V6h-1.5ZM20 18.25H4v1.5h16v-1.5ZM3.75 18V6h-1.5v12h1.5Zm.25.25a.25.25 0 0 1-.25-.25h-1.5c0 .966.784 1.75 1.75 1.75v-1.5ZM20.25 18a.25.25 0 0 1-.25.25v1.5A1.75 1.75 0 0 0 21.75 18h-1.5ZM4 4.25c-.483 0-.922.197-1.237.513l1.06 1.06A.247.247 0 0 1 4 5.75v-1.5Zm-1.237.513A1.747 1.747 0 0 0 2.25 6h1.5c0-.07.027-.13.073-.177l-1.06-1.06ZM20 5.75c.07 0 .13.027.177.073l1.06-1.06A1.747 1.747 0 0 0 20 4.25v1.5Zm.177.073A.247.247 0 0 1 20.25 6h1.5c0-.483-.197-.922-.513-1.237l-1.06 1.06Zm-10.121 7.293a2.75 2.75 0 0 0 3.889 0l-1.061-1.06a1.25 1.25 0 0 1-1.768 0l-1.06 1.06ZM2.763 5.823l7.293 7.293 1.06-1.06-7.293-7.293-1.06 1.06Zm11.181 7.293 7.293-7.293-1.06-1.06-7.293 7.292 1.06 1.061Z" fill="currentColor"/></symbol><symbol fill="none" viewBox="0 0 24 24" id="mail-outlined" xmlns="http://www.w3.org/2000/svg"><path d="m10.586 12.586.53-.53-.53.53Zm2.828 0-.53-.53.53.53ZM4 5.75h16v-1.5H4v1.5ZM20.25 6v12h1.5V6h-1.5ZM20 18.25H4v1.5h16v-1.5ZM3.75 18V6h-1.5v12h1.5Zm.25.25a.25.25 0 0 1-.25-.25h-1.5c0 .966.784 1.75 1.75 1.75v-1.5ZM20.25 18a.25.25 0 0 1-.25.25v1.5A1.75 1.75 0 0 0 21.75 18h-1.5ZM4 4.25c-.483 0-.922.197-1.237.513l1.06 1.06A.247.247 0 0 1 4 5.75v-1.5Zm-1.237.513A1.747 1.747 0 0 0 2.25 6h1.5c0-.07.027-.13.073-.177l-1.06-1.06ZM20 5.75c.07 0 .13.027.177.073l1.06-1.06A1.747 1.747 0 0 0 20 4.25v1.5Zm.177.073A.247.247 0 0 1 20.25 6h1.5c0-.483-.197-.922-.513-1.237l-1.06 1.06Zm-10.121 7.293a2.75 2.75 0 0 0 3.889 0l-1.061-1.06a1.25 1.25 0 0 1-1.768 0l-1.06 1.06ZM2.763 5.823l7.293 7.293 1.06-1.06-7.293-7.293-1.06 1.06Zm11.181 7.293 7.293-7.293-1.06-1.06-7.293 7.292 1.06 1.061Z" fill="currentColor"/></symbol><symbol fill="none" viewBox="0 0 24 24" id="phone-call-outlined" xmlns="http://www.w3.org/2000/svg"><path d="m21 16.477-.75-.019v.019H21Zm0 2.71h-.75v.002l.75-.003ZM4.808 3v-.75V3Zm2.715 0v.75h.008L7.523 3Zm1.198.437-.488.569.488-.57Zm-.31 6.708-.53-.531a.75.75 0 0 0-.122.902l.651-.371Zm5.43 5.42-.37.652a.75.75 0 0 0 .9-.122l-.53-.53Zm6.73-.301.572-.485-.572.485Zm-10.528-7.16.733.157-.733-.157Zm5.842 5.831.156.734-.156-.734Zm3.141 7.058.068-.747a.733.733 0 0 0-.068-.003v.75ZM3.008 4.969h.75a.754.754 0 0 0-.003-.067l-.747.067Zm11.637.795a.75.75 0 1 0-.288 1.472l.288-1.472Zm2.12 3.88a.75.75 0 1 0 1.472-.288l-1.472.288Zm-1.681-7.39a.75.75 0 1 0-.166 1.491l.166-1.49ZM19 5l.53-.53L19 5Zm1.255 4.084a.75.75 0 1 0 1.49-.168l-1.49.168Zm-.005 7.393v2.71h1.5v-2.71h-1.5ZM4.808 3.75h2.715v-1.5H4.808v1.5Zm2.723 0c.257-.002.507.089.702.256l.977-1.138a2.562 2.562 0 0 0-1.694-.618l.015 1.5Zm.228 6.766a15.217 15.217 0 0 0 5.711 5.7l.74-1.304a13.717 13.717 0 0 1-5.148-5.138l-1.303.742Zm12.24 5.233c.168.198.257.45.25.709l1.5.037a2.555 2.555 0 0 0-.606-1.716l-1.144.97ZM8.233 4.006c.122.105.284.323.45.672.162.338.305.746.416 1.175.233.894.29 1.72.21 2.095l1.467.313c.155-.722.025-1.823-.225-2.786a8.154 8.154 0 0 0-.514-1.444c-.206-.43-.476-.862-.827-1.163l-.977 1.138Zm7.808 10.663c.377-.08 1.209-.022 2.107.211a6.67 6.67 0 0 1 1.18.417c.35.168.567.33.671.452l1.144-.97c-.301-.355-.735-.627-1.167-.834a8.151 8.151 0 0 0-1.45-.517c-.967-.251-2.074-.38-2.797-.227l.312 1.468Zm-1.67 1.426c.161-.161.324-.341.469-.5.151-.165.292-.315.435-.45.294-.277.536-.428.766-.476L15.73 13.2c-.628.134-1.114.505-1.482.852-.187.176-.36.362-.513.528-.16.174-.292.321-.423.453l1.06 1.061ZM9.308 7.948c-.048.228-.2.47-.476.763a8.648 8.648 0 0 1-.452.435c-.158.144-.339.307-.5.468l1.06 1.062c.13-.132.278-.264.452-.423.167-.152.353-.325.53-.512.347-.367.72-.852.853-1.48L9.31 7.948Zm9.717 12.295c-8.61.007-15.276-6.72-15.269-15.273l-1.5-.001c-.007 9.378 7.327 16.781 16.77 16.774l-.001-1.5Zm1.224-1.053c.002.595-.552 1.11-1.156 1.056l-.135 1.494c1.488.134 2.797-1.08 2.79-2.557l-1.5.006ZM3.754 4.901C3.7 4.305 4.21 3.75 4.81 3.75l-.002-1.5c-1.47.001-2.681 1.303-2.547 2.787l1.494-.135Zm10.602 2.334c.632.123 1.214.395 1.614.794l1.06-1.06c-.662-.663-1.543-1.042-2.386-1.206l-.288 1.472Zm1.614.794c.4.4.67.982.794 1.614l1.472-.288c-.164-.843-.543-1.724-1.206-2.386l-1.06 1.06Zm-1.053-4.285c1.339.15 2.565.799 3.553 1.786l1.06-1.062c-1.192-1.19-2.723-2.023-4.447-2.214l-.166 1.49Zm3.553 1.786c.987.985 1.634 2.213 1.785 3.553l1.49-.168c-.193-1.722-1.021-3.254-2.215-4.447l-1.06 1.062Z" fill="currentColor"/></symbol><symbol fill="none" viewBox="0 0 24 24" id="phone-call-outlined" xmlns="http://www.w3.org/2000/svg"><path d="m21 16.477-.75-.019v.019H21Zm0 2.71h-.75v.002l.75-.003ZM4.808 3v-.75V3Zm2.715 0v.75h.008L7.523 3Zm1.198.437-.488.569.488-.57Zm-.31 6.708-.53-.531a.75.75 0 0 0-.122.902l.651-.371Zm5.43 5.42-.37.652a.75.75 0 0 0 .9-.122l-.53-.53Zm6.73-.301.572-.485-.572.485Zm-10.528-7.16.733.157-.733-.157Zm5.842 5.831.156.734-.156-.734Zm3.141 7.058.068-.747a.733.733 0 0 0-.068-.003v.75ZM3.008 4.969h.75a.754.754 0 0 0-.003-.067l-.747.067Zm11.637.795a.75.75 0 1 0-.288 1.472l.288-1.472Zm2.12 3.88a.75.75 0 1 0 1.472-.288l-1.472.288Zm-1.681-7.39a.75.75 0 1 0-.166 1.491l.166-1.49ZM19 5l.53-.53L19 5Zm1.255 4.084a.75.75 0 1 0 1.49-.168l-1.49.168Zm-.005 7.393v2.71h1.5v-2.71h-1.5ZM4.808 3.75h2.715v-1.5H4.808v1.5Zm2.723 0c.257-.002.507.089.702.256l.977-1.138a2.562 2.562 0 0 0-1.694-.618l.015 1.5Zm.228 6.766a15.217 15.217 0 0 0 5.711 5.7l.74-1.304a13.717 13.717 0 0 1-5.148-5.138l-1.303.742Zm12.24 5.233c.168.198.257.45.25.709l1.5.037a2.555 2.555 0 0 0-.606-1.716l-1.144.97ZM8.233 4.006c.122.105.284.323.45.672.162.338.305.746.416 1.175.233.894.29 1.72.21 2.095l1.467.313c.155-.722.025-1.823-.225-2.786a8.154 8.154 0 0 0-.514-1.444c-.206-.43-.476-.862-.827-1.163l-.977 1.138Zm7.808 10.663c.377-.08 1.209-.022 2.107.211a6.67 6.67 0 0 1 1.18.417c.35.168.567.33.671.452l1.144-.97c-.301-.355-.735-.627-1.167-.834a8.151 8.151 0 0 0-1.45-.517c-.967-.251-2.074-.38-2.797-.227l.312 1.468Zm-1.67 1.426c.161-.161.324-.341.469-.5.151-.165.292-.315.435-.45.294-.277.536-.428.766-.476L15.73 13.2c-.628.134-1.114.505-1.482.852-.187.176-.36.362-.513.528-.16.174-.292.321-.423.453l1.06 1.061ZM9.308 7.948c-.048.228-.2.47-.476.763a8.648 8.648 0 0 1-.452.435c-.158.144-.339.307-.5.468l1.06 1.062c.13-.132.278-.264.452-.423.167-.152.353-.325.53-.512.347-.367.72-.852.853-1.48L9.31 7.948Zm9.717 12.295c-8.61.007-15.276-6.72-15.269-15.273l-1.5-.001c-.007 9.378 7.327 16.781 16.77 16.774l-.001-1.5Zm1.224-1.053c.002.595-.552 1.11-1.156 1.056l-.135 1.494c1.488.134 2.797-1.08 2.79-2.557l-1.5.006ZM3.754 4.901C3.7 4.305 4.21 3.75 4.81 3.75l-.002-1.5c-1.47.001-2.681 1.303-2.547 2.787l1.494-.135Zm10.602 2.334c.632.123 1.214.395 1.614.794l1.06-1.06c-.662-.663-1.543-1.042-2.386-1.206l-.288 1.472Zm1.614.794c.4.4.67.982.794 1.614l1.472-.288c-.164-.843-.543-1.724-1.206-2.386l-1.06 1.06Zm-1.053-4.285c1.339.15 2.565.799 3.553 1.786l1.06-1.062c-1.192-1.19-2.723-2.023-4.447-2.214l-.166 1.49Zm3.553 1.786c.987.985 1.634 2.213 1.785 3.553l1.49-.168c-.193-1.722-1.021-3.254-2.215-4.447l-1.06 1.062Z" fill="currentColor"/></symbol><symbol fill="none" viewBox="0 0 24 24" id="pin-outlined" xmlns="http://www.w3.org/2000/svg"><path d="M11.25 21a.75.75 0 0 0 1.5 0h-1.5Zm0-8v8h1.5v-8h-1.5Zm5-5A4.25 4.25 0 0 1 12 12.25v1.5A5.75 5.75 0 0 0 17.75 8h-1.5ZM12 12.25A4.25 4.25 0 0 1 7.75 8h-1.5A5.75 5.75 0 0 0 12 13.75v-1.5ZM7.75 8A4.25 4.25 0 0 1 12 3.75v-1.5A5.75 5.75 0 0 0 6.25 8h1.5ZM12 3.75A4.25 4.25 0 0 1 16.25 8h1.5A5.75 5.75 0 0 0 12 2.25v1.5Z" fill="currentColor"/></symbol><symbol fill="none" viewBox="0 0 24 24" id="pin-outlined" xmlns="http://www.w3.org/2000/svg"><path d="M11.25 21a.75.75 0 0 0 1.5 0h-1.5Zm0-8v8h1.5v-8h-1.5Zm5-5A4.25 4.25 0 0 1 12 12.25v1.5A5.75 5.75 0 0 0 17.75 8h-1.5ZM12 12.25A4.25 4.25 0 0 1 7.75 8h-1.5A5.75 5.75 0 0 0 12 13.75v-1.5ZM7.75 8A4.25 4.25 0 0 1 12 3.75v-1.5A5.75 5.75 0 0 0 6.25 8h1.5ZM12 3.75A4.25 4.25 0 0 1 16.25 8h1.5A5.75 5.75 0 0 0 12 2.25v1.5Z" fill="currentColor"/></symbol><symbol fill="none" viewBox="0 0 24 24" id="twitter-outlined" xmlns="http://www.w3.org/2000/svg"><path d="M22.991 3.95a1 1 0 0 0-1.51-.86 7.48 7.48 0 0 1-1.873.794 5.152 5.152 0 0 0-3.375-1.242 5.232 5.232 0 0 0-5.223 5.063 11.032 11.032 0 0 1-6.814-3.924 1.011 1.011 0 0 0-.857-.365.998.998 0 0 0-.785.5 5.275 5.275 0 0 0-.242 4.769l-.002.002a1.041 1.041 0 0 0-.496.888 3.04 3.04 0 0 0 .027.44 5.185 5.185 0 0 0 1.568 3.312.999.999 0 0 0-.066.77 5.204 5.204 0 0 0 2.362 2.921 7.465 7.465 0 0 1-3.59.449A1 1 0 0 0 1.45 19.3a12.942 12.942 0 0 0 7.01 2.061 12.788 12.788 0 0 0 12.465-9.363c.353-1.183.533-2.412.535-3.646l-.001-.2a5.77 5.77 0 0 0 1.532-4.202Zm-3.306 3.212a.995.995 0 0 0-.234.702c.01.165.009.331.009.488a10.825 10.825 0 0 1-.454 3.08 10.685 10.685 0 0 1-10.546 7.93c-.86 0-1.715-.101-2.55-.301a9.48 9.48 0 0 0 2.942-1.564 1.001 1.001 0 0 0-.602-1.786 3.208 3.208 0 0 1-2.214-.935c.15-.028.298-.063.445-.105a1 1 0 0 0-.08-1.944 3.197 3.197 0 0 1-2.25-1.725c.181.025.363.04.545.046a1.022 1.022 0 0 0 .984-.696 1 1 0 0 0-.4-1.137A3.196 3.196 0 0 1 3.86 6.344a13.014 13.014 0 0 0 8.21 3.48 1.02 1.02 0 0 0 .817-.36 1 1 0 0 0 .206-.867 3.164 3.164 0 0 1-.087-.729 3.23 3.23 0 0 1 4.506-2.962c.403.176.766.433 1.065.756a.993.993 0 0 0 .921.298 9.27 9.27 0 0 0 1.212-.322 6.679 6.679 0 0 1-1.026 1.524Z" fill="currentColor"/></symbol><symbol fill="none" viewBox="0 0 24 24" id="twitter-outlined" xmlns="http://www.w3.org/2000/svg"><path d="M22.991 3.95a1 1 0 0 0-1.51-.86 7.48 7.48 0 0 1-1.873.794 5.152 5.152 0 0 0-3.375-1.242 5.232 5.232 0 0 0-5.223 5.063 11.032 11.032 0 0 1-6.814-3.924 1.011 1.011 0 0 0-.857-.365.998.998 0 0 0-.785.5 5.275 5.275 0 0 0-.242 4.769l-.002.002a1.041 1.041 0 0 0-.496.888 3.04 3.04 0 0 0 .027.44 5.185 5.185 0 0 0 1.568 3.312.999.999 0 0 0-.066.77 5.204 5.204 0 0 0 2.362 2.921 7.465 7.465 0 0 1-3.59.449A1 1 0 0 0 1.45 19.3a12.942 12.942 0 0 0 7.01 2.061 12.788 12.788 0 0 0 12.465-9.363c.353-1.183.533-2.412.535-3.646l-.001-.2a5.77 5.77 0 0 0 1.532-4.202Zm-3.306 3.212a.995.995 0 0 0-.234.702c.01.165.009.331.009.488a10.825 10.825 0 0 1-.454 3.08 10.685 10.685 0 0 1-10.546 7.93c-.86 0-1.715-.101-2.55-.301a9.48 9.48 0 0 0 2.942-1.564 1.001 1.001 0 0 0-.602-1.786 3.208 3.208 0 0 1-2.214-.935c.15-.028.298-.063.445-.105a1 1 0 0 0-.08-1.944 3.197 3.197 0 0 1-2.25-1.725c.181.025.363.04.545.046a1.022 1.022 0 0 0 .984-.696 1 1 0 0 0-.4-1.137A3.196 3.196 0 0 1 3.86 6.344a13.014 13.014 0 0 0 8.21 3.48 1.02 1.02 0 0 0 .817-.36 1 1 0 0 0 .206-.867 3.164 3.164 0 0 1-.087-.729 3.23 3.23 0 0 1 4.506-2.962c.403.176.766.433 1.065.756a.993.993 0 0 0 .921.298 9.27 9.27 0 0 0 1.212-.322 6.679 6.679 0 0 1-1.026 1.524Z" fill="currentColor"/></symbol></svg>